<?xml version="1.0" standalone="no"?>
<!DOCTYPE svg PUBLIC "-//W3C//DTD SVG 20010904//EN"
 "http://www.w3.org/TR/2001/REC-SVG-20010904/DTD/svg10.dtd">
<svg version="1.0" xmlns="http://www.w3.org/2000/svg"
 width="409.000000pt" height="155.000000pt" viewBox="0 0 409.000000 155.000000"
 preserveAspectRatio="xMidYMid meet">

<g transform="translate(0.000000,155.000000) scale(0.100000,-0.100000)"
fill="#000000" stroke="none">
<path d="M0 775 l0 -775 2045 0 2045 0 0 775 0 775 -2045 0 -2045 0 0 -775z
m1015 554 c172 -64 246 -229 172 -381 -15 -31 -45 -72 -66 -91 l-39 -35 44
-31 c61 -42 100 -108 115 -190 11 -62 10 -75 -9 -138 -34 -111 -121 -192 -237
-221 -22 -6 -174 -13 -337 -16 l-298 -5 0 565 0 564 300 0 c279 0 303 -1 355
-21z m1215 -119 l0 -140 -150 0 -150 0 0 -420 0 -420 -42 -1 c-24 0 -96 -1
-160 -2 l-118 -2 0 173 c0 130 -3 172 -12 173 -10 0 -10 2 0 6 9 3 12 63 12
249 l0 244 -149 0 c-177 0 -164 -11 -157 142 3 57 6 111 6 121 0 16 29 17 460
17 l460 0 0 -140z m465 -175 c49 -173 92 -311 96 -307 4 4 19 39 34 77 15 39
40 99 56 135 15 36 53 126 84 200 98 236 80 210 144 210 l56 -1 85 -202 c163
-390 183 -433 191 -406 4 13 16 58 27 99 28 100 109 392 128 458 l15 52 164 0
c91 0 165 -2 165 -5 0 -3 -50 -169 -111 -368 -62 -199 -120 -389 -130 -422
-55 -185 -98 -317 -104 -323 -11 -11 -265 -9 -274 2 -4 6 -50 117 -101 246
-51 129 -98 246 -105 259 l-12 25 -8 -25 c-6 -22 -50 -135 -155 -401 -23 -60
-45 -109 -49 -109 -3 -1 -66 -2 -139 -3 l-132 -2 -26 86 c-14 47 -40 132 -59
190 -59 186 -102 322 -140 445 -57 183 -95 305 -111 354 -8 25 -14 46 -14 48
0 2 76 3 168 3 l168 0 89 -315z"/>
<path d="M660 1015 l0 -95 99 0 c83 0 102 3 123 20 52 40 41 131 -18 156 -20
8 -68 14 -119 14 l-85 0 0 -95z"/>
<path d="M670 682 c-6 -2 -10 -44 -10 -98 l0 -94 100 0 c54 0 110 5 123 11 65
30 65 135 1 170 -22 11 -187 20 -214 11z"/>
</g>
</svg>
